<?xml version="1.0" encoding="utf-8"?>
<!-- Generator: Adobe Illustrator 16.0.0, SVG Export Plug-In . SVG Version: 6.00 Build 0)  -->
<!DOCTYPE svg PUBLIC "-//W3C//DTD SVG 1.1//EN" "http://www.w3.org/Graphics/SVG/1.1/DTD/svg11.dtd">
<svg version="1.1" id="Layer_1" xmlns="http://www.w3.org/2000/svg" xmlns:xlink="http://www.w3.org/1999/xlink" x="0px" y="0px"
	 width="126px" height="126px" viewBox="0 0 126 126" enable-background="new 0 0 126 126" xml:space="preserve">
<path fill="#444445" d="M63,124.361C29.165,124.361,1.639,96.835,1.639,63S29.165,1.639,63,1.639S124.361,29.165,124.361,63
	S96.835,124.361,63,124.361z M63,4.639C30.819,4.639,4.639,30.819,4.639,63S30.819,121.361,63,121.361S121.361,95.181,121.361,63
	S95.181,4.639,63,4.639z M91.822,37.761l-6.617,6.617l-4.162-4.162l6.617-6.617L91.822,37.761z M86.941,27.582l-1.654,1.654
	l10.896,10.898l1.656-1.655L86.941,27.582z M52.939,70.264l-5.104,5.104l2.217,2.218l5.105-5.104L52.939,70.264z M28.162,98.418
	L48.529,78.05l-1.158-1.158L28.83,95.432L28.162,98.418z M50.164,65.502l9.756,9.755l3.033-3.032l-6.041-6.041
	c-0.271-0.271-0.271-0.709,0-0.979c0.27-0.271,0.709-0.271,0.979-0.001l6.041,6.041l4.047-4.045l-6.041-6.041
	c-0.271-0.271-0.271-0.709,0-0.979c0.27-0.271,0.709-0.271,0.979,0l6.041,6.041l4.045-4.046l-6.041-6.041
	c-0.27-0.271-0.27-0.709,0-0.979c0.271-0.27,0.709-0.271,0.98,0l6.041,6.041l4.045-4.046l-6.041-6.041
	c-0.27-0.27-0.27-0.708,0-0.979c0.271-0.271,0.709-0.271,0.98,0l6.041,6.041l8-8.001l-9.754-9.755L50.164,65.502z"/>
<path fill="#444445" d="M249.5-31.431c-17.331,0-31.431,14.101-31.431,31.431c0,17.332,14.1,31.431,31.431,31.431
	S280.931,17.332,280.931,0C280.931-17.331,266.831-31.431,249.5-31.431z M264.416,2.5H252v12.416h-5V2.5h-12.415v-5H247v-12.416h5
	V-2.5h12.416V2.5z"/>
<path fill="#444445" d="M249.5,47.069c-17.331,0-31.431,14.1-31.431,31.43c0,17.332,14.1,31.432,31.431,31.432
	s31.431-14.1,31.431-31.432C280.931,61.169,266.831,47.069,249.5,47.069z M261.814,87.28l-3.535,3.535l-8.779-8.779l-8.779,8.777
	l-3.535-3.535l8.779-8.779l-8.779-8.777l3.535-3.535l8.779,8.779l8.779-8.781l3.535,3.535l-8.779,8.779L261.814,87.28z"/>
<path fill="#444445" d="M249.5-109.931c-17.331,0-31.431,14.1-31.431,31.431s14.1,31.431,31.431,31.431s31.431-14.1,31.431-31.431
	S266.831-109.931,249.5-109.931z M253.466-60.25h-7.932v-4.19h7.932V-60.25z M253.466-67.44h-7.932v-4.068h7.932V-67.44z
	 M253.466-85.363v10.855h-7.932v-10.855h-2.611l6.578-11.387l6.576,11.387H253.466z"/>
<path fill="#444445" d="M249.5,188.431c17.331,0,31.431-14.1,31.431-31.431s-14.1-31.431-31.431-31.431s-31.431,14.1-31.431,31.431
	S232.169,188.431,249.5,188.431z M245.534,163.863V138.75h7.932v25.113h2.611l-6.578,11.387l-6.576-11.387H245.534z"/>
</svg>
