<?xml version="1.0" encoding="utf-8"?>
<!-- Generator: Adobe Illustrator 16.0.0, SVG Export Plug-In . SVG Version: 6.00 Build 0)  -->
<!DOCTYPE svg PUBLIC "-//W3C//DTD SVG 1.0//EN" "http://www.w3.org/TR/2001/REC-SVG-20010904/DTD/svg10.dtd">
<svg version="1.0" id="Layer_1" xmlns="http://www.w3.org/2000/svg" xmlns:xlink="http://www.w3.org/1999/xlink" x="0px" y="0px"
	 width="65px" height="65px" viewBox="0 0 65 65" enable-background="new 0 0 65 65" xml:space="preserve">
<path fill="#444445" d="M-154-0.139c-33.835,0-61.361-27.526-61.361-61.361s27.526-61.361,61.361-61.361S-92.639-95.335-92.639-61.5
	S-120.165-0.139-154-0.139z M-154-119.861c-32.181,0-58.361,26.181-58.361,58.361S-186.181-3.139-154-3.139
	S-95.639-29.319-95.639-61.5S-121.819-119.861-154-119.861z"/>
<rect x="-135.246" y="-88.455" transform="matrix(0.7071 -0.7071 0.7071 0.7071 22.2236 -117.3709)" fill-rule="evenodd" clip-rule="evenodd" fill="#444445" width="9.358" height="5.886"/>
<rect x="-126.607" y="-98.348" transform="matrix(0.7073 -0.7069 0.7069 0.7073 27.3614 -115.2004)" fill-rule="evenodd" clip-rule="evenodd" fill="#444445" width="2.342" height="15.411"/>
<rect x="-169.112" y="-52.143" transform="matrix(0.7072 -0.707 0.707 0.7072 -12.6974 -131.812)" fill-rule="evenodd" clip-rule="evenodd" fill="#444445" width="7.219" height="3.136"/>
<polygon fill-rule="evenodd" clip-rule="evenodd" fill="#444445" points="-188.17,-29.068 -169.629,-47.608 -168.471,-46.45 
	-188.838,-26.082 "/>
<path fill-rule="evenodd" clip-rule="evenodd" fill="#444445" d="M-166.836-58.998l9.756,9.755l3.033-3.032l-6.041-6.041
	c-0.271-0.271-0.271-0.709,0-0.979c0.27-0.271,0.709-0.271,0.979-0.001l6.041,6.041l4.047-4.045l-6.041-6.041
	c-0.271-0.271-0.271-0.709,0-0.979c0.27-0.271,0.709-0.271,0.979,0l6.041,6.041l4.045-4.046l-6.041-6.041
	c-0.27-0.271-0.27-0.709,0-0.979c0.271-0.27,0.709-0.271,0.98,0l6.041,6.041l4.045-4.046l-6.041-6.041
	c-0.27-0.27-0.27-0.708,0-0.979c0.271-0.271,0.709-0.271,0.98,0l6.041,6.041l8-8.001l-9.754-9.755L-166.836-58.998z"/>
<path fill="#444445" d="M32.5-155.931c-17.331,0-31.431,14.101-31.431,31.431c0,17.332,14.1,31.431,31.431,31.431
	s31.431-14.1,31.431-31.431C63.931-141.831,49.831-155.931,32.5-155.931z M47.416-122H35v12.416h-5V-122H17.585v-5H30v-12.416h5
	V-127h12.416V-122z"/>
<path fill="#444445" d="M32.5-77.431c-17.331,0-31.431,14.1-31.431,31.43c0,17.332,14.1,31.432,31.431,31.432
	s31.431-14.1,31.431-31.432C63.931-63.331,49.831-77.431,32.5-77.431z M44.814-37.22l-3.535,3.535L32.5-42.464l-8.779,8.777
	l-3.535-3.535l8.779-8.779l-8.779-8.777l3.535-3.535l8.779,8.779l8.779-8.781l3.535,3.535l-8.779,8.779L44.814-37.22z"/>
<path fill="#444445" d="M32.5-234.431c-17.331,0-31.431,14.1-31.431,31.431s14.1,31.431,31.431,31.431s31.431-14.1,31.431-31.431
	S49.831-234.431,32.5-234.431z M36.466-184.75h-7.932v-4.19h7.932V-184.75z M36.466-191.94h-7.932v-4.068h7.932V-191.94z
	 M36.466-209.863v10.855h-7.932v-10.855h-2.611l6.578-11.387l6.576,11.387H36.466z"/>
<path fill="#444445" d="M32.5,63.931c17.331,0,31.431-14.1,31.431-31.431S49.831,1.069,32.5,1.069S1.069,15.169,1.069,32.5
	S15.169,63.931,32.5,63.931z M28.534,39.363V14.25h7.932v25.113h2.611L32.499,50.75l-6.576-11.387H28.534z"/>
</svg>
