<?xml version="1.0" encoding="utf-8"?>
<!-- Generator: Adobe Illustrator 16.0.0, SVG Export Plug-In . SVG Version: 6.00 Build 0)  -->
<!DOCTYPE svg PUBLIC "-//W3C//DTD SVG 1.1//EN" "http://www.w3.org/Graphics/SVG/1.1/DTD/svg11.dtd">
<svg version="1.1" id="Layer_1" xmlns="http://www.w3.org/2000/svg" xmlns:xlink="http://www.w3.org/1999/xlink" x="0px" y="0px"
	 width="122.723px" height="122.723px" viewBox="0 0 122.723 122.723" enable-background="new 0 0 122.723 122.723"
	 xml:space="preserve">
<path fill="#444445" d="M61.361,122.723C27.526,122.723,0,95.196,0,61.361S27.526,0,61.361,0s61.361,27.526,61.361,61.361S95.196,122.723,61.361,122.723z M61.361,3C29.181,3,3,29.181,3,61.361s26.181,58.361,58.361,58.361s58.361-26.181,58.361-58.361S93.542,3,61.361,3z M90.184,36.122l-6.617,6.617l-4.162-4.162l6.617-6.617L90.184,36.122z M85.303,25.943l-1.654,1.654l10.896,10.898l1.656-1.655L85.303,25.943z M51.301,68.625l-5.104,5.104l2.217,2.218l5.105-5.104L51.301,68.625z M26.523,96.779l20.367-20.368l-1.158-1.158l-18.541,18.54L26.523,96.779z M48.525,63.863l9.756,9.755l3.033-3.032l-6.041-6.041c-0.271-0.271-0.271-0.709,0-0.979c0.27-0.271,0.709-0.271,0.979-0.001l6.041,6.041l4.047-4.045l-6.041-6.041c-0.271-0.271-0.271-0.709,0-0.979c0.27-0.271,0.709-0.271,0.979,0l6.041,6.041l4.045-4.046l-6.041-6.041c-0.27-0.271-0.27-0.709,0-0.979c0.271-0.27,0.709-0.271,0.98,0l6.041,6.041l4.045-4.046l-6.041-6.041c-0.27-0.27-0.27-0.708,0-0.979c0.271-0.271,0.709-0.271,0.98,0l6.041,6.041l8-8.001l-9.754-9.755L48.525,63.863z"/>
</svg>
