<?xml version="1.0" encoding="utf-8"?>
<!-- Generator: Adobe Illustrator 16.0.0, SVG Export Plug-In . SVG Version: 6.00 Build 0)  -->
<!DOCTYPE svg PUBLIC "-//W3C//DTD SVG 1.1//EN" "http://www.w3.org/Graphics/SVG/1.1/DTD/svg11.dtd">
<svg version="1.1" id="Layer_1" xmlns="http://www.w3.org/2000/svg" xmlns:xlink="http://www.w3.org/1999/xlink" x="0px" y="0px"
	 width="130px" height="260px" viewBox="0 0 130 260" enable-background="new 0 0 130 260" xml:space="preserve">
<path fill="#171C36" d="M32.5,1.069c-17.331,0-31.431,14.1-31.431,31.431s14.1,31.432,31.431,31.432S63.932,49.831,63.932,32.5
	S49.831,1.069,32.5,1.069z M36.466,50.75h-7.932v-4.189h7.932V50.75z M36.466,43.561h-7.932v-4.067h7.932V43.561z M36.466,25.637
	v10.855h-7.932V25.637h-2.611l6.578-11.387l6.576,11.387H36.466z"/>
<path fill="#FFFFFF" d="M97.5,1.069c-17.331,0-31.432,14.1-31.432,31.431S80.169,63.932,97.5,63.932s31.432-14.101,31.432-31.432
	S114.831,1.069,97.5,1.069z M101.466,50.75h-7.932v-4.189h7.932V50.75z M101.466,43.561h-7.932v-4.067h7.932V43.561z
	 M101.466,25.637v10.855h-7.932V25.637h-2.611l6.578-11.387l6.576,11.387H101.466z"/>
<path fill="#171C36" d="M32.5,258.932c17.331,0,31.432-14.101,31.432-31.432S49.831,196.068,32.5,196.068S1.069,210.169,1.069,227.5
	S15.169,258.932,32.5,258.932z M28.534,234.363V209.25h7.932v25.113h2.611l-6.578,11.387l-6.576-11.387H28.534z"/>
<path fill="#FFFFFF" d="M97.499,258.932c17.331,0,31.432-14.101,31.432-31.432s-14.101-31.432-31.432-31.432
	S66.068,210.169,66.068,227.5S80.168,258.932,97.499,258.932z M93.533,234.363V209.25h7.932v25.113h2.611l-6.578,11.387
	l-6.576-11.387H93.533z"/>
<path fill="#171C36" d="M32.5,66.068c-17.331,0-31.431,14.101-31.431,31.432c0,17.332,14.1,31.432,31.431,31.432
	s31.432-14.1,31.432-31.432C63.932,80.169,49.831,66.068,32.5,66.068z M47.416,100H35v12.416h-5V100H17.585v-5H30V82.584h5V95
	h12.416V100z"/>
<path fill="#FFFFFF" d="M97.5,66.068c-17.331,0-31.432,14.101-31.432,31.432c0,17.332,14.101,31.432,31.432,31.432
	s31.432-14.1,31.432-31.432C128.932,80.169,114.831,66.068,97.5,66.068z M112.416,100H100v12.416h-5V100H82.585v-5H95V82.584h5V95
	h12.416V100z"/>
<path fill="#171C36" d="M32.5,131.068c-17.331,0-31.431,14.101-31.431,31.431c0,17.332,14.1,31.433,31.431,31.433
	s31.432-14.101,31.432-31.433C63.932,145.169,49.831,131.068,32.5,131.068z M44.814,171.28l-3.535,3.534l-8.779-8.778l-8.779,8.776
	l-3.535-3.535l8.779-8.778l-8.779-8.776l3.535-3.535l8.779,8.778l8.779-8.78l3.535,3.534l-8.779,8.779L44.814,171.28z"/>
<path fill="#FFFFFF" d="M97.5,131.068c-17.331,0-31.432,14.101-31.432,31.431c0,17.332,14.101,31.433,31.432,31.433
	s31.432-14.101,31.432-31.433C128.932,145.169,114.831,131.068,97.5,131.068z M109.814,171.28l-3.535,3.534l-8.779-8.778
	l-8.779,8.776l-3.535-3.535l8.779-8.778l-8.779-8.776l3.535-3.535l8.779,8.778l8.779-8.78l3.535,3.534l-8.779,8.779L109.814,171.28z
	"/>
</svg>
