<?xml version="1.0" encoding="utf-8"?>
<!-- Generator: Adobe Illustrator 16.0.0, SVG Export Plug-In . SVG Version: 6.00 Build 0)  -->
<!DOCTYPE svg PUBLIC "-//W3C//DTD SVG 1.1//EN" "http://www.w3.org/Graphics/SVG/1.1/DTD/svg11.dtd">
<svg version="1.1" id="Layer_1" xmlns="http://www.w3.org/2000/svg" xmlns:xlink="http://www.w3.org/1999/xlink" x="0px" y="0px"
	 width="126px" height="126px" viewBox="0 0 126 126" enable-background="new 0 0 126 126" xml:space="preserve">
<circle fill="none" stroke="#00002A" stroke-width="3" stroke-miterlimit="10" cx="63" cy="63" r="59.861"/>
<g>
	
		<rect x="81.753" y="36.045" transform="matrix(-0.7071 0.7072 -0.7072 -0.7071 175.1153 5.4339)" fill="#00002A" width="9.357" height="5.886"/>
	
		<rect x="90.392" y="26.151" transform="matrix(-0.7072 0.707 -0.707 -0.7072 180.2533 -6.9344)" fill="#00002A" width="2.342" height="15.411"/>
	
		<rect x="47.888" y="72.352" transform="matrix(-0.7072 0.707 -0.707 -0.7072 140.1772 89.7922)" fill="#00002A" width="7.219" height="3.135"/>
	<polygon fill="#00002A" points="28.83,95.432 47.371,76.893 48.529,78.05 28.162,98.418 	"/>
	<path fill="#00002A" d="M50.164,65.502l9.756,9.755l3.033-3.032l-6.041-6.041c-0.271-0.271-0.271-0.709,0-0.979
		c0.27-0.271,0.709-0.271,0.979-0.001l6.041,6.041l4.047-4.045l-6.041-6.041c-0.271-0.271-0.271-0.709,0-0.979
		c0.27-0.271,0.709-0.271,0.979,0l6.041,6.041l4.045-4.046l-6.041-6.041c-0.271-0.271-0.271-0.709,0-0.979
		c0.271-0.271,0.709-0.271,0.979,0l6.041,6.041l4.045-4.046l-6.041-6.041c-0.27-0.27-0.27-0.708,0-0.979
		c0.271-0.271,0.709-0.271,0.98,0l6.041,6.041l8-8.001l-9.754-9.755L50.164,65.502z"/>
</g>
</svg>
