<?xml version="1.0" encoding="utf-8"?>
<!-- Generator: Adobe Illustrator 16.0.0, SVG Export Plug-In . SVG Version: 6.00 Build 0)  -->
<!DOCTYPE svg PUBLIC "-//W3C//DTD SVG 1.1//EN" "http://www.w3.org/Graphics/SVG/1.1/DTD/svg11.dtd">
<svg version="1.1" id="Layer_1" xmlns="http://www.w3.org/2000/svg" xmlns:xlink="http://www.w3.org/1999/xlink" x="0px" y="0px"
	 width="252px" height="126px" viewBox="0 0 252 126" enable-background="new 0 0 252 126" xml:space="preserve">
<circle fill="none" stroke="#171C36" stroke-width="2" stroke-miterlimit="10" cx="63" cy="63" r="59.861"/>
<g>
	<polygon fill="#171C36" points="79.817,35.494 83.569,39.248 78.493,44.327 81.036,46.872 86.116,41.793 89.869,45.547 
		91.144,44.275 81.09,34.222 	"/>
	<polygon fill="#171C36" points="50,66.582 58.781,75.362 63.147,70.996 56.869,64.719 57.506,64.083 63.785,70.36 68.151,65.993 
		61.873,59.717 62.509,59.08 68.787,65.357 73.156,60.99 66.878,54.712 67.515,54.076 73.789,60.353 78.157,55.987 71.88,49.709 
		72.517,49.073 78.795,55.351 83.16,50.985 74.381,42.206 	"/>
	<polygon fill="#171C36" points="35.7,88.39 34.856,91.779 48.444,78.191 47.172,76.92 	"/>
	<polygon fill="#171C36" points="55.274,73.846 50.679,78.438 46.927,74.686 51.519,70.089 	"/>
</g>
<circle fill="none" stroke="#FFFFFF" stroke-width="2" stroke-miterlimit="10" cx="189" cy="63" r="59.861"/>
<g>
	<polygon fill="#FFFFFF" points="205.817,35.494 209.57,39.248 204.492,44.327 207.036,46.872 212.115,41.793 215.868,45.547 
		217.145,44.275 207.09,34.222 	"/>
	<polygon fill="#FFFFFF" points="176.001,66.582 184.781,75.362 189.146,70.996 182.869,64.719 183.507,64.083 189.785,70.36 
		194.15,65.993 187.872,59.717 188.509,59.08 194.787,65.357 199.156,60.99 192.878,54.712 193.514,54.076 199.789,60.353 
		204.156,55.987 197.881,49.709 198.517,49.073 204.795,55.351 209.16,50.985 200.382,42.206 	"/>
	<polygon fill="#FFFFFF" points="161.7,88.39 160.855,91.779 174.444,78.191 173.172,76.92 	"/>
	<polygon fill="#FFFFFF" points="181.274,73.846 176.68,78.438 172.927,74.686 177.519,70.089 	"/>
</g>
</svg>
