<?xml version="1.0" encoding="utf-8"?>
<!-- Generator: Adobe Illustrator 16.0.0, SVG Export Plug-In . SVG Version: 6.00 Build 0)  -->
<!DOCTYPE svg PUBLIC "-//W3C//DTD SVG 1.0//EN" "http://www.w3.org/TR/2001/REC-SVG-20010904/DTD/svg10.dtd">
<svg version="1.0" id="Layer_1" xmlns="http://www.w3.org/2000/svg" xmlns:xlink="http://www.w3.org/1999/xlink" x="0px" y="0px"
	 width="126px" height="126px" viewBox="0 0 126 126" enable-background="new 0 0 126 126" xml:space="preserve">
<g>
	<circle fill="#FFFFFF" stroke="#000000" stroke-width="3" stroke-miterlimit="10" cx="63" cy="63" r="59.861"/>
	<g>
		
			<rect x="81.754" y="36.045" transform="matrix(0.7071 -0.7071 0.7071 0.7071 -2.2533 72.5365)" fill-rule="evenodd" clip-rule="evenodd" width="9.358" height="5.886"/>
		
			<rect x="90.393" y="26.152" transform="matrix(0.7073 -0.7069 0.7069 0.7073 2.8651 74.6357)" fill-rule="evenodd" clip-rule="evenodd" width="2.342" height="15.411"/>
		
			<rect x="47.888" y="72.357" transform="matrix(0.7072 -0.707 0.707 0.7072 -37.1869 58.0492)" fill-rule="evenodd" clip-rule="evenodd" width="7.219" height="3.136"/>
		<polygon fill-rule="evenodd" clip-rule="evenodd" points="28.83,95.432 47.371,76.892 48.529,78.05 28.162,98.418 		"/>
		<path fill-rule="evenodd" clip-rule="evenodd" d="M50.164,65.502l9.756,9.755l3.033-3.032l-6.041-6.041
			c-0.271-0.271-0.271-0.709,0-0.979c0.27-0.271,0.709-0.271,0.979-0.001l6.041,6.041l4.047-4.045l-6.041-6.041
			c-0.271-0.271-0.271-0.709,0-0.979c0.27-0.271,0.709-0.271,0.979,0l6.041,6.041l4.045-4.046l-6.041-6.041
			c-0.27-0.271-0.27-0.709,0-0.979c0.271-0.27,0.709-0.271,0.98,0l6.041,6.041l4.045-4.046l-6.041-6.041
			c-0.27-0.27-0.27-0.708,0-0.979c0.271-0.271,0.709-0.271,0.98,0l6.041,6.041l8-8.001l-9.754-9.755L50.164,65.502z"/>
	</g>
</g>
</svg>
