<?xml version="1.0" encoding="utf-8"?>
<!-- Generator: Adobe Illustrator 16.0.0, SVG Export Plug-In . SVG Version: 6.00 Build 0)  -->
<!DOCTYPE svg PUBLIC "-//W3C//DTD SVG 1.1//EN" "http://www.w3.org/Graphics/SVG/1.1/DTD/svg11.dtd">
<svg version="1.1" id="Layer_1" xmlns="http://www.w3.org/2000/svg" xmlns:xlink="http://www.w3.org/1999/xlink" x="0px" y="0px"
	 width="126px" height="126px" viewBox="0 0 126 126" enable-background="new 0 0 126 126" xml:space="preserve">
<circle fill="none" stroke="#FFFFFF" stroke-width="3" stroke-miterlimit="10" cx="62.999" cy="63" r="59.861"/>
<g>
	<polygon fill="#FFFFFF" points="81.685,32.438 85.855,36.609 80.214,42.252 83.04,45.08 88.684,39.437 92.854,43.608 
		94.271,42.195 83.099,31.024 	"/>
	<polygon fill="#FFFFFF" points="48.556,66.98 58.312,76.736 63.163,71.885 56.188,64.91 56.896,64.203 63.872,71.178 
		68.722,66.326 61.747,59.351 62.454,58.644 69.43,65.619 74.284,60.767 67.308,53.791 68.015,53.083 74.989,60.059 79.841,55.208 
		72.867,48.234 73.574,47.527 80.55,54.501 85.4,49.65 75.646,39.895 	"/>
	<polygon fill="#FFFFFF" points="32.667,91.211 31.729,94.977 46.827,79.879 45.413,78.467 	"/>
	<polygon fill="#FFFFFF" points="54.416,75.051 49.31,80.152 45.141,75.984 50.243,70.877 	"/>
</g>
</svg>
